<svg width="47" height="40" viewBox="0 0 47 40" fill="none" xmlns="http://www.w3.org/2000/svg">
<path d="M23.9 12.6741V1.87413C23.9 0.17413 21.9 -0.625869 20.7 0.574131L11.4 9.87413C11.1 10.1741 10.6 10.3741 10.1 10.3741H1.9C0.9 10.3741 0 11.1741 0 12.2741V27.2741C0 28.2741 0.8 29.1741 1.9 29.1741H10.2C10.7 29.1741 11.2 29.3741 11.5 29.6741L20.8 38.9741C22 40.1741 24 39.2741 24 37.6741V26.8741C24 26.4741 24.2 26.0741 24.6 25.8741C26.7 24.8741 28.2 22.4741 28.2 19.7741C28.2 17.0741 26.7 14.6741 24.6 13.6741C24.1 13.4741 23.9 13.0741 23.9 12.6741Z" fill="black"/>
<path d="M34.1 10.274C33.4 9.57402 32.2 9.57402 31.5 10.274C30.8 10.974 30.8 12.174 31.5 12.874C35.1 16.474 35.1 22.374 31.5 25.974C30.8 26.674 30.8 27.874 31.5 28.574C31.9 28.974 32.3 29.074 32.8 29.074C33.3 29.074 33.7 28.874 34.1 28.574C39.1 23.474 39.1 15.274 34.1 10.274Z" fill="black"/>
<path d="M41 5.17393C40.3 4.47393 39.1 4.47393 38.4 5.17393C37.7 5.87393 37.7 7.07393 38.4 7.77393C41.6 10.9739 43.4 15.1739 43.4 19.7739C43.4 24.2739 41.6 28.5739 38.4 31.7739C37.7 32.4739 37.7 33.6739 38.4 34.3739C38.8 34.7739 39.2 34.8739 39.7 34.8739C40.2 34.8739 40.6 34.6739 41 34.3739C44.9 30.4739 47 25.2739 47 19.8739C47 14.2739 44.9 9.07393 41 5.17393Z" fill="black"/>
</svg>
