<svg width="68" height="61" viewBox="0 0 68 61" fill="none" xmlns="http://www.w3.org/2000/svg">
<path d="M66.546 21.9949C65.885 21.3339 65.006 20.9699 64.07 20.9699H33.959L40.857 14.0729C42.219 12.7089 42.219 10.4889 40.856 9.12388L32.723 0.991875C31.403 -0.329125 29.099 -0.332125 27.774 0.991875L1.02202 27.7459C-0.146978 28.9169 -0.334978 30.7679 0.571022 32.1399C0.700022 32.3379 0.852022 32.5259 1.02302 32.6959L27.773 59.4479C28.434 60.1089 29.313 60.4729 30.248 60.4729C31.184 60.4729 32.062 60.1089 32.724 59.4479L40.858 51.3149C42.221 49.9509 42.221 47.7299 40.857 46.3669L33.961 39.4709H64.071C66.001 39.4709 67.571 37.9009 67.571 35.9699V24.4709C67.571 23.5359 67.207 22.6569 66.546 21.9949Z" fill="#F5F5F5"/>
</svg>
