<svg width="69" height="61" viewBox="0 0 69 61" fill="none" xmlns="http://www.w3.org/2000/svg">
<path d="M67.475 22.0222C66.814 21.3612 65.935 20.9972 64.999 20.9972H34.888L41.786 14.1002C43.148 12.7362 43.148 10.5162 41.785 9.15122L33.652 1.01922C32.332 -0.301781 30.028 -0.304781 28.703 1.01922L1.95101 27.7732C0.782008 28.9442 0.594007 30.7952 1.50001 32.1672C1.62901 32.3652 1.78101 32.5532 1.95201 32.7232L28.702 59.4752C29.363 60.1362 30.242 60.5002 31.177 60.5002C32.113 60.5002 32.991 60.1362 33.653 59.4752L41.787 51.3422C43.15 49.9782 43.15 47.7572 41.786 46.3942L34.89 39.4982H65C66.93 39.4982 68.5 37.9282 68.5 35.9972V24.4982C68.5 23.5632 68.136 22.6842 67.475 22.0222Z" fill="black"/>
</svg>
