<svg width="47" height="47" viewBox="0 0 47 47" fill="none" xmlns="http://www.w3.org/2000/svg">
<path d="M23.5 0C10.5 0 0 10.5 0 23.5C0 36.5 10.5 47 23.5 47C36.5 47 47 36.5 47 23.5C47 10.5 36.5 0 23.5 0ZM36.6 21.5C36.5 19.7 36.3 18 36 16.3C35.9 15.9 36.3 15.6 36.7 15.8C40 17.2 42.4 19.1 43.4 21.3C43.6 21.6 43.3 22 43 22H37.1C36.9 22 36.7 21.8 36.6 21.5ZM33.1 22H25.5C25.2 22 25 21.8 25 21.5V13.9C25 13.6 25.2 13.4 25.5 13.4C27.9 13.5 30.2 13.9 32.3 14.4C32.5 14.4 32.6 14.6 32.7 14.8C33.2 16.9 33.5 19.2 33.7 21.6C33.6 21.8 33.4 22 33.1 22ZM25 9.9V4C25 3.6 25.4 3.4 25.7 3.6C27.8 4.6 29.8 7 31.2 10.3C31.4 10.7 31 11 30.7 11C29.1 10.7 27.3 10.5 25.5 10.4C25.2 10.3 25 10.1 25 9.9ZM22 4V9.9C22 10.2 21.8 10.4 21.5 10.4C19.7 10.5 18 10.7 16.3 11C15.9 11.1 15.6 10.7 15.8 10.3C17.2 6.9 19.1 4.5 21.3 3.5C21.6 3.4 22 3.6 22 4ZM22 13.9V21.5C22 21.8 21.8 22 21.5 22H13.9C13.6 22 13.4 21.8 13.4 21.5C13.5 19.1 13.9 16.8 14.4 14.7C14.4 14.5 14.6 14.4 14.8 14.3C16.9 13.8 19.2 13.5 21.6 13.3C21.8 13.4 22 13.6 22 13.9ZM9.9 22H4C3.6 22 3.4 21.6 3.6 21.3C4.6 19.2 7 17.2 10.3 15.8C10.7 15.6 11 16 11 16.3C10.7 17.9 10.5 19.7 10.4 21.5C10.3 21.8 10.1 22 9.9 22ZM10.4 25.5C10.5 27.3 10.7 29 11 30.7C11.1 31.1 10.7 31.4 10.3 31.2C6.9 29.8 4.5 27.9 3.5 25.7C3.3 25.4 3.6 25 3.9 25H9.8C10.1 25 10.3 25.2 10.4 25.5ZM13.9 25H21.5C21.8 25 22 25.2 22 25.5V33.1C22 33.4 21.8 33.6 21.5 33.6C19.1 33.5 16.8 33.1 14.7 32.6C14.5 32.6 14.4 32.4 14.3 32.2C13.8 30.1 13.5 27.8 13.3 25.4C13.4 25.2 13.6 25 13.9 25ZM22 37.1V43C22 43.4 21.6 43.6 21.3 43.4C19.1 42.4 17.2 40 15.8 36.7C15.6 36.3 16 36 16.3 36C18 36.3 19.7 36.5 21.5 36.6C21.8 36.7 22 36.9 22 37.1ZM25 43V37.1C25 36.8 25.2 36.6 25.5 36.6C27.3 36.5 29 36.3 30.7 36C31.1 35.9 31.4 36.3 31.2 36.7C29.8 40 27.9 42.4 25.7 43.4C25.4 43.6 25 43.4 25 43ZM25 33.1V25.5C25 25.2 25.2 25 25.5 25H33.1C33.4 25 33.6 25.2 33.6 25.5C33.5 27.9 33.1 30.2 32.6 32.3C32.6 32.5 32.4 32.6 32.2 32.7C30.1 33.2 27.8 33.5 25.4 33.7C25.2 33.6 25 33.4 25 33.1ZM37.1 25H43C43.4 25 43.6 25.4 43.4 25.7C42.4 27.9 40 29.8 36.7 31.2C36.3 31.4 36 31 36 30.7C36.3 29 36.5 27.3 36.6 25.5C36.7 25.2 36.9 25 37.1 25ZM40.9 14.6C39.3 13.6 37.4 12.8 35.3 12.1C35.2 12.1 35 11.9 35 11.8C34.3 9.7 33.5 7.8 32.5 6.2C32.2 5.8 32.7 5.3 33.1 5.5C36.7 7.4 39.7 10.4 41.6 14C41.8 14.4 41.3 14.8 40.9 14.6ZM14.6 6.1C13.6 7.7 12.8 9.6 12.1 11.7C12.1 11.8 11.9 12 11.8 12C9.7 12.7 7.8 13.5 6.2 14.5C5.8 14.8 5.3 14.3 5.5 13.9C7.4 10.3 10.4 7.3 14 5.4C14.4 5.1 14.8 5.7 14.6 6.1ZM6.1 32.4C7.7 33.4 9.6 34.3 11.8 34.9C11.9 34.9 12.1 35.1 12.1 35.2C12.8 37.3 13.6 39.2 14.6 40.9C14.9 41.3 14.4 41.8 14 41.6C10.4 39.7 7.4 36.7 5.4 33C5.1 32.6 5.6 32.2 6.1 32.4ZM32.4 40.9C33.4 39.3 34.3 37.4 34.9 35.2C34.9 35.1 35.1 34.9 35.2 34.9C37.3 34.2 39.2 33.4 40.9 32.4C41.3 32.1 41.8 32.6 41.6 33C39.7 36.6 36.7 39.6 33 41.6C32.6 41.9 32.2 41.4 32.4 40.9Z" fill="black"/>
</svg>
